<?xml version="1.0" encoding="utf-8"?>
<!-- Generator: Adobe Illustrator 16.0.4, SVG Export Plug-In . SVG Version: 6.00 Build 0)  -->
<!DOCTYPE svg PUBLIC "-//W3C//DTD SVG 1.1//EN" "http://www.w3.org/Graphics/SVG/1.1/DTD/svg11.dtd">
<svg id="Capa_1" xmlns="http://www.w3.org/2000/svg" width="216" height="146">
	<path d="M162.2 41.6a62.3 62.3 0 0 0-85.6-22.8A62.3 62.3 0 0 0 45.4 73a62.3 62.3 0 0 0 94 54.2 62.3 62.3 0 0 0 22.8-85.6zM118.4 112c0 .8-.2 1.4-.7 2s-1 .7-1.8.7h-15.6c-.7 0-1.4-.3-2-.8-.5-.5-.7-1.2-.7-1.9V96.5c0-.7.2-1.3.8-1.8.5-.6 1.2-.8 1.9-.8h15.6c.7 0 1.3.2 1.8.7.5.5.7 1.2.7 2V112zm-.1-28c0 .5-.4 1-.9 1.4a3 3 0 0 1-1.9.6h-15c-.8 0-1.5-.2-2-.6-.6-.4-.8-.9-.8-1.4l-1.4-50.6c0-.6.2-1.1.8-1.5a3 3 0 0 1 2-.6H117a3 3 0 0 1 2 .6c.5.4.7.9.7 1.5L118.3 84z" fill="#1b1b1b"/>
</svg>