<?xml version="1.0" encoding="utf-8"?>
<!-- Generator: Adobe Illustrator 16.0.4, SVG Export Plug-In . SVG Version: 6.00 Build 0)  -->
<!DOCTYPE svg PUBLIC "-//W3C//DTD SVG 1.1//EN" "http://www.w3.org/Graphics/SVG/1.1/DTD/svg11.dtd">
<svg id="Capa_1" xmlns="http://www.w3.org/2000/svg" width="216" height="146">
	<path d="M162.2 41.6a62.3 62.3 0 0 0-85.6-22.8A62.3 62.3 0 0 0 45.4 73a62.3 62.3 0 0 0 94 54.2 62.3 62.3 0 0 0 22.8-85.6zM97.6 26c0-.8.2-1.4.7-1.9.5-.5 1.1-.7 1.9-.7h15.6c.8 0 1.4.2 1.9.7.5.5.7 1.1.7 1.9v13c0 .8-.2 1.4-.7 1.9-.5.5-1.1.7-1.9.7h-15.6c-.8 0-1.4-.2-1.9-.7-.5-.5-.7-1.1-.7-1.9v-13zm31.3 86c0 .8-.3 1.4-.8 1.9s-1 .7-1.8.7H89.8c-.8 0-1.4-.2-2-.7-.4-.5-.7-1.1-.7-1.9v-13c0-.8.3-1.4.8-1.9s1-.7 1.8-.7h7.9V70.4h-7.8c-.8 0-1.4-.3-2-.7-.4-.5-.7-1.2-.7-2v-13c0-.7.3-1.3.8-1.8s1-.8 1.8-.8h26.1c.8 0 1.4.3 1.9.8s.7 1 .7 1.8v41.8h7.8c.8 0 1.4.2 2 .7.4.5.7 1.1.7 1.9v13z" fill="#1b1b1b"/>
</svg>
